<?xml version="1.0" standalone="no"?>
<!DOCTYPE svg PUBLIC "-//W3C//DTD SVG 20010904//EN"
 "http://www.w3.org/TR/2001/REC-SVG-20010904/DTD/svg10.dtd">
<svg version="1.0" xmlns="http://www.w3.org/2000/svg"
 width="512.000000pt" height="512.000000pt" viewBox="0 0 512.000000 512.000000"
 preserveAspectRatio="xMidYMid meet">

<g transform="translate(0.000000,512.000000) scale(0.100000,-0.100000)"
fill="#000000" stroke="none">
<path d="M2255 4842 c-148 -104 -688 -477 -1200 -831 -511 -354 -938 -652
-947 -663 -33 -37 -23 -78 41 -169 106 -152 121 -155 264 -56 l97 67 0 -1255
0 -1255 271 0 271 0 29 29 29 29 0 279 0 278 -45 24 c-154 82 -167 317 -23
421 178 130 427 -10 406 -227 -8 -85 -68 -173 -137 -204 l-31 -14 0 -276 c0
-310 -6 -347 -65 -416 -19 -22 -56 -51 -82 -64 -46 -23 -57 -24 -336 -27
l-287 -4 0 -52 c0 -148 69 -267 195 -334 l50 -27 478 -3 477 -3 0 857 c0 834
-1 859 -20 898 -12 25 -106 127 -242 263 l-223 222 -53 -14 c-109 -29 -221 17
-278 112 -55 92 -55 174 0 266 75 126 237 159 363 74 87 -58 131 -195 93 -291
-11 -29 -9 -32 233 -275 219 -221 247 -252 268 -306 l24 -60 3 -872 3 -873
169 0 170 0 0 1201 c0 1046 -2 1205 -15 1233 -8 17 -118 134 -243 259 -221
221 -229 228 -256 217 -36 -13 -119 -13 -168 2 -51 15 -121 77 -147 131 -47
97 -16 239 67 307 38 31 115 60 162 60 106 0 216 -83 245 -185 17 -57 14 -129
-5 -166 -7 -12 43 -67 216 -240 124 -123 238 -244 254 -269 62 -97 60 -47 60
-1357 l0 -1193 170 0 170 0 0 1193 c0 1310 -2 1260 60 1357 16 25 130 146 254
269 173 173 223 228 216 240 -19 37 -22 109 -5 166 29 102 139 185 245 185 47
0 124 -29 162 -60 83 -68 114 -210 67 -307 -26 -54 -96 -116 -147 -131 -49
-15 -132 -15 -168 -2 -27 11 -35 4 -256 -217 -125 -125 -235 -242 -243 -259
-13 -28 -15 -187 -15 -1233 l0 -1201 170 0 170 0 0 828 c0 487 4 855 10 895 6
37 20 87 31 110 13 26 115 136 261 283 237 239 239 241 228 270 -22 56 -15
141 17 203 88 173 339 181 439 14 55 -92 55 -174 0 -266 -57 -95 -169 -141
-278 -112 l-53 14 -223 -222 c-136 -136 -230 -238 -242 -263 -19 -39 -20 -64
-20 -898 l0 -857 478 3 477 3 45 24 c70 37 98 61 135 115 39 58 65 146 65 222
l0 52 -287 4 c-279 3 -290 4 -336 27 -26 13 -63 42 -82 64 -59 69 -65 106 -65
418 l0 277 -29 12 c-16 6 -45 28 -65 47 -152 152 -61 411 151 430 149 13 267
-82 280 -226 10 -106 -48 -213 -136 -252 l-31 -14 0 -278 0 -279 29 -29 29
-29 271 0 271 0 0 1255 0 1256 97 -68 c143 -99 158 -96 264 56 64 91 74 132
41 169 -9 11 -557 394 -1218 851 -1027 711 -1206 831 -1235 831 -28 -1 -85
-36 -304 -188z m363 -278 l22 -14 0 -489 0 -489 30 -12 c41 -17 115 -99 131
-146 22 -66 15 -146 -19 -207 -101 -180 -348 -179 -446 3 -33 61 -39 137 -17
204 16 47 90 129 131 146 l30 12 2 492 3 491 35 17 c36 18 58 16 98 -8z"/>
</g>
</svg>
